<mxfile host="app.diagrams.net" agent="Mozilla/5.0 (Windows NT 10.0; Win64; x64) AppleWebKit/537.36 (KHTML, like Gecko) Chrome/135.0.0.0 Safari/537.36 Edg/135.0.0.0" version="26.2.9">
  <diagram id="Ht1M8jgEwFfnCIfOTk4-" name="Page-1">
    <mxGraphModel dx="1420" dy="794" grid="0" gridSize="10" guides="1" tooltips="1" connect="1" arrows="1" fold="1" page="1" pageScale="1" pageWidth="1169" pageHeight="827" math="0" shadow="0">
      <root>
        <mxCell id="0" />
        <mxCell id="1" parent="0" />
        <mxCell id="UEzPUAAOIrF-is8g5C7q-74" value="AWS Cloud" style="points=[[0,0],[0.25,0],[0.5,0],[0.75,0],[1,0],[1,0.25],[1,0.5],[1,0.75],[1,1],[0.75,1],[0.5,1],[0.25,1],[0,1],[0,0.75],[0,0.5],[0,0.25]];outlineConnect=0;gradientColor=none;html=1;whiteSpace=wrap;fontSize=12;fontStyle=0;shape=mxgraph.aws4.group;grIcon=mxgraph.aws4.group_aws_cloud_alt;strokeColor=#232F3E;fillColor=none;verticalAlign=top;align=left;spacingLeft=30;fontColor=#232F3E;dashed=0;labelBackgroundColor=#ffffff;container=1;pointerEvents=0;collapsible=0;recursiveResize=0;" parent="1" vertex="1">
          <mxGeometry x="40" y="40" width="1040" height="660" as="geometry" />
        </mxCell>
        <mxCell id="KW-mi6ML7vya9-LGP3Cr-4" value="AWS Account (Development)" style="points=[[0,0],[0.25,0],[0.5,0],[0.75,0],[1,0],[1,0.25],[1,0.5],[1,0.75],[1,1],[0.75,1],[0.5,1],[0.25,1],[0,1],[0,0.75],[0,0.5],[0,0.25]];outlineConnect=0;gradientColor=none;whiteSpace=wrap;fontSize=12;fontStyle=0;container=1;pointerEvents=0;collapsible=0;recursiveResize=0;shape=mxgraph.aws4.group;grIcon=mxgraph.aws4.group_account;strokeColor=#CD2264;fillColor=none;verticalAlign=top;align=left;spacingLeft=30;fontColor=#CD2264;dashed=0;html=1;" parent="UEzPUAAOIrF-is8g5C7q-74" vertex="1">
          <mxGeometry x="40" y="40" width="960" height="580" as="geometry" />
        </mxCell>
        <mxCell id="KW-mi6ML7vya9-LGP3Cr-9" value="Region (Tokyo)" style="points=[[0,0],[0.25,0],[0.5,0],[0.75,0],[1,0],[1,0.25],[1,0.5],[1,0.75],[1,1],[0.75,1],[0.5,1],[0.25,1],[0,1],[0,0.75],[0,0.5],[0,0.25]];outlineConnect=0;gradientColor=none;html=1;whiteSpace=wrap;fontSize=12;fontStyle=0;container=1;pointerEvents=0;collapsible=0;recursiveResize=0;shape=mxgraph.aws4.group;grIcon=mxgraph.aws4.group_region;strokeColor=#00A4A6;fillColor=none;verticalAlign=top;align=left;spacingLeft=30;fontColor=#147EBA;dashed=1;" parent="KW-mi6ML7vya9-LGP3Cr-4" vertex="1">
          <mxGeometry x="40" y="40" width="360" height="500" as="geometry" />
        </mxCell>
        <mxCell id="KW-mi6ML7vya9-LGP3Cr-15" value="ECR" style="rounded=0;whiteSpace=wrap;html=1;fontColor=#ED7100;strokeColor=#ED7100;verticalAlign=top;spacingLeft=30;align=left;" parent="KW-mi6ML7vya9-LGP3Cr-9" vertex="1">
          <mxGeometry x="40" y="40" width="280" height="340" as="geometry" />
        </mxCell>
        <mxCell id="KW-mi6ML7vya9-LGP3Cr-36" value="registry (Staging)" style="rounded=0;whiteSpace=wrap;html=1;fontColor=#ED7100;strokeColor=#ED7100;dashed=1;labelPosition=center;verticalLabelPosition=middle;align=left;verticalAlign=top;spacingLeft=30;" parent="KW-mi6ML7vya9-LGP3Cr-9" vertex="1">
          <mxGeometry x="80" y="220" width="200" height="120" as="geometry" />
        </mxCell>
        <mxCell id="KW-mi6ML7vya9-LGP3Cr-35" value="" style="sketch=0;outlineConnect=0;fontColor=#232F3E;gradientColor=none;fillColor=#ED7100;strokeColor=none;dashed=0;verticalLabelPosition=bottom;verticalAlign=top;align=center;html=1;fontSize=12;fontStyle=0;aspect=fixed;pointerEvents=1;shape=mxgraph.aws4.registry;" parent="KW-mi6ML7vya9-LGP3Cr-9" vertex="1">
          <mxGeometry x="80" y="220" width="24" height="24" as="geometry" />
        </mxCell>
        <mxCell id="KW-mi6ML7vya9-LGP3Cr-19" value="registry (Production)" style="rounded=0;whiteSpace=wrap;html=1;fontColor=#ED7100;strokeColor=#ED7100;dashed=1;labelPosition=center;verticalLabelPosition=middle;align=left;verticalAlign=top;spacingLeft=30;" parent="KW-mi6ML7vya9-LGP3Cr-9" vertex="1">
          <mxGeometry x="80" y="80" width="200" height="120" as="geometry" />
        </mxCell>
        <mxCell id="KW-mi6ML7vya9-LGP3Cr-5" value="" style="sketch=0;points=[[0,0,0],[0.25,0,0],[0.5,0,0],[0.75,0,0],[1,0,0],[0,1,0],[0.25,1,0],[0.5,1,0],[0.75,1,0],[1,1,0],[0,0.25,0],[0,0.5,0],[0,0.75,0],[1,0.25,0],[1,0.5,0],[1,0.75,0]];outlineConnect=0;fontColor=#232F3E;fillColor=#ED7100;strokeColor=#ffffff;dashed=0;verticalLabelPosition=bottom;verticalAlign=top;align=center;html=1;fontSize=12;fontStyle=0;aspect=fixed;shape=mxgraph.aws4.resourceIcon;resIcon=mxgraph.aws4.ecr;" parent="KW-mi6ML7vya9-LGP3Cr-9" vertex="1">
          <mxGeometry x="40" y="40" width="24" height="24" as="geometry" />
        </mxCell>
        <mxCell id="KW-mi6ML7vya9-LGP3Cr-6" value="" style="sketch=0;outlineConnect=0;fontColor=#232F3E;gradientColor=none;fillColor=#ED7100;strokeColor=none;dashed=0;verticalLabelPosition=bottom;verticalAlign=top;align=center;html=1;fontSize=12;fontStyle=0;aspect=fixed;pointerEvents=1;shape=mxgraph.aws4.container_registry_image;" parent="KW-mi6ML7vya9-LGP3Cr-9" vertex="1">
          <mxGeometry x="135" y="125" width="30" height="30" as="geometry" />
        </mxCell>
        <mxCell id="KW-mi6ML7vya9-LGP3Cr-8" value="" style="sketch=0;outlineConnect=0;fontColor=#232F3E;gradientColor=none;fillColor=#ED7100;strokeColor=none;dashed=0;verticalLabelPosition=bottom;verticalAlign=top;align=center;html=1;fontSize=12;fontStyle=0;aspect=fixed;pointerEvents=1;shape=mxgraph.aws4.registry;" parent="KW-mi6ML7vya9-LGP3Cr-9" vertex="1">
          <mxGeometry x="80" y="80" width="24" height="24" as="geometry" />
        </mxCell>
        <mxCell id="KW-mi6ML7vya9-LGP3Cr-20" value="" style="sketch=0;outlineConnect=0;fontColor=#232F3E;gradientColor=none;fillColor=#ED7100;strokeColor=none;dashed=0;verticalLabelPosition=bottom;verticalAlign=top;align=center;html=1;fontSize=12;fontStyle=0;aspect=fixed;pointerEvents=1;shape=mxgraph.aws4.container_registry_image;" parent="KW-mi6ML7vya9-LGP3Cr-9" vertex="1">
          <mxGeometry x="195" y="125" width="30" height="30" as="geometry" />
        </mxCell>
        <mxCell id="KW-mi6ML7vya9-LGP3Cr-17" style="edgeStyle=orthogonalEdgeStyle;rounded=0;orthogonalLoop=1;jettySize=auto;html=1;exitX=0.5;exitY=1;exitDx=0;exitDy=0;" parent="KW-mi6ML7vya9-LGP3Cr-9" edge="1">
          <mxGeometry relative="1" as="geometry">
            <mxPoint x="395" y="399.17" as="sourcePoint" />
            <mxPoint x="395" y="399.17" as="targetPoint" />
          </mxGeometry>
        </mxCell>
        <mxCell id="KW-mi6ML7vya9-LGP3Cr-18" style="edgeStyle=orthogonalEdgeStyle;rounded=0;orthogonalLoop=1;jettySize=auto;html=1;exitX=0.5;exitY=1;exitDx=0;exitDy=0;" parent="KW-mi6ML7vya9-LGP3Cr-9" edge="1">
          <mxGeometry relative="1" as="geometry">
            <mxPoint x="395" y="399.17" as="sourcePoint" />
            <mxPoint x="395" y="399.17" as="targetPoint" />
          </mxGeometry>
        </mxCell>
        <mxCell id="KW-mi6ML7vya9-LGP3Cr-22" value="" style="sketch=0;outlineConnect=0;fontColor=#232F3E;gradientColor=none;fillColor=#ED7100;strokeColor=none;dashed=0;verticalLabelPosition=bottom;verticalAlign=top;align=center;html=1;fontSize=12;fontStyle=0;aspect=fixed;pointerEvents=1;shape=mxgraph.aws4.container_registry_image;" parent="KW-mi6ML7vya9-LGP3Cr-9" vertex="1">
          <mxGeometry x="135" y="264.17" width="30" height="30" as="geometry" />
        </mxCell>
        <mxCell id="KW-mi6ML7vya9-LGP3Cr-23" value="" style="sketch=0;outlineConnect=0;fontColor=#232F3E;gradientColor=none;fillColor=#ED7100;strokeColor=none;dashed=0;verticalLabelPosition=bottom;verticalAlign=top;align=center;html=1;fontSize=12;fontStyle=0;aspect=fixed;pointerEvents=1;shape=mxgraph.aws4.container_registry_image;" parent="KW-mi6ML7vya9-LGP3Cr-9" vertex="1">
          <mxGeometry x="195" y="264.17" width="30" height="30" as="geometry" />
        </mxCell>
        <mxCell id="KW-mi6ML7vya9-LGP3Cr-26" value="" style="sketch=0;outlineConnect=0;fontColor=#232F3E;gradientColor=none;fillColor=#ED7100;strokeColor=none;dashed=0;verticalLabelPosition=bottom;verticalAlign=top;align=center;html=1;fontSize=12;fontStyle=0;aspect=fixed;pointerEvents=1;shape=mxgraph.aws4.container_registry_image;" parent="KW-mi6ML7vya9-LGP3Cr-9" vertex="1">
          <mxGeometry x="135" y="264.17" width="30" height="30" as="geometry" />
        </mxCell>
        <mxCell id="KW-mi6ML7vya9-LGP3Cr-27" value="" style="sketch=0;outlineConnect=0;fontColor=#232F3E;gradientColor=none;fillColor=#ED7100;strokeColor=none;dashed=0;verticalLabelPosition=bottom;verticalAlign=top;align=center;html=1;fontSize=12;fontStyle=0;aspect=fixed;pointerEvents=1;shape=mxgraph.aws4.container_registry_image;" parent="KW-mi6ML7vya9-LGP3Cr-9" vertex="1">
          <mxGeometry x="195" y="264.17" width="30" height="30" as="geometry" />
        </mxCell>
        <mxCell id="KW-mi6ML7vya9-LGP3Cr-54" value="" style="sketch=0;points=[[0,0,0],[0.25,0,0],[0.5,0,0],[0.75,0,0],[1,0,0],[0,1,0],[0.25,1,0],[0.5,1,0],[0.75,1,0],[1,1,0],[0,0.25,0],[0,0.5,0],[0,0.75,0],[1,0.25,0],[1,0.5,0],[1,0.75,0]];outlineConnect=0;fontColor=#232F3E;fillColor=#C925D1;strokeColor=#ffffff;dashed=0;verticalLabelPosition=bottom;verticalAlign=top;align=center;html=1;fontSize=12;fontStyle=0;aspect=fixed;shape=mxgraph.aws4.resourceIcon;resIcon=mxgraph.aws4.codebuild;" parent="KW-mi6ML7vya9-LGP3Cr-9" vertex="1">
          <mxGeometry x="160" y="440" width="40" height="40" as="geometry" />
        </mxCell>
        <mxCell id="KW-mi6ML7vya9-LGP3Cr-61" value="" style="edgeStyle=elbowEdgeStyle;elbow=vertical;endArrow=classic;html=1;curved=0;rounded=0;endSize=8;startSize=8;entryX=0.25;entryY=1;entryDx=0;entryDy=0;exitX=0.5;exitY=0;exitDx=0;exitDy=0;exitPerimeter=0;" parent="KW-mi6ML7vya9-LGP3Cr-9" source="KW-mi6ML7vya9-LGP3Cr-54" target="KW-mi6ML7vya9-LGP3Cr-36" edge="1">
          <mxGeometry width="50" height="50" relative="1" as="geometry">
            <mxPoint x="150" y="430" as="sourcePoint" />
            <mxPoint x="200" y="380" as="targetPoint" />
            <Array as="points">
              <mxPoint x="170" y="400" />
            </Array>
          </mxGeometry>
        </mxCell>
        <mxCell id="KW-mi6ML7vya9-LGP3Cr-62" value="" style="edgeStyle=elbowEdgeStyle;elbow=vertical;endArrow=classic;html=1;curved=0;rounded=0;endSize=8;startSize=8;exitX=0.5;exitY=0;exitDx=0;exitDy=0;exitPerimeter=0;entryX=0.75;entryY=1;entryDx=0;entryDy=0;" parent="KW-mi6ML7vya9-LGP3Cr-9" source="KW-mi6ML7vya9-LGP3Cr-54" target="KW-mi6ML7vya9-LGP3Cr-19" edge="1">
          <mxGeometry width="50" height="50" relative="1" as="geometry">
            <mxPoint x="195" y="430" as="sourcePoint" />
            <mxPoint x="180" y="200" as="targetPoint" />
            <Array as="points">
              <mxPoint x="170" y="400" />
            </Array>
          </mxGeometry>
        </mxCell>
        <mxCell id="KW-mi6ML7vya9-LGP3Cr-59" value="Dockr push" style="text;html=1;align=center;verticalAlign=middle;whiteSpace=wrap;rounded=0;" parent="KW-mi6ML7vya9-LGP3Cr-9" vertex="1">
          <mxGeometry x="165" y="400" width="100" height="30" as="geometry" />
        </mxCell>
        <mxCell id="KW-mi6ML7vya9-LGP3Cr-37" value="Region (Osaka)" style="points=[[0,0],[0.25,0],[0.5,0],[0.75,0],[1,0],[1,0.25],[1,0.5],[1,0.75],[1,1],[0.75,1],[0.5,1],[0.25,1],[0,1],[0,0.75],[0,0.5],[0,0.25]];outlineConnect=0;gradientColor=none;html=1;whiteSpace=wrap;fontSize=12;fontStyle=0;container=1;pointerEvents=0;collapsible=0;recursiveResize=0;shape=mxgraph.aws4.group;grIcon=mxgraph.aws4.group_region;strokeColor=#00A4A6;fillColor=none;verticalAlign=top;align=left;spacingLeft=30;fontColor=#147EBA;dashed=1;" parent="KW-mi6ML7vya9-LGP3Cr-4" vertex="1">
          <mxGeometry x="560" y="40" width="360" height="500" as="geometry" />
        </mxCell>
        <mxCell id="KW-mi6ML7vya9-LGP3Cr-38" value="ECR" style="rounded=0;whiteSpace=wrap;html=1;fontColor=#ED7100;strokeColor=#ED7100;verticalAlign=top;align=left;spacingLeft=30;" parent="KW-mi6ML7vya9-LGP3Cr-37" vertex="1">
          <mxGeometry x="40" y="40" width="280" height="340" as="geometry" />
        </mxCell>
        <mxCell id="KW-mi6ML7vya9-LGP3Cr-41" value="registry (Production)" style="rounded=0;whiteSpace=wrap;html=1;fontColor=#ED7100;strokeColor=#ED7100;dashed=1;labelPosition=center;verticalLabelPosition=middle;align=left;verticalAlign=top;spacingLeft=30;" parent="KW-mi6ML7vya9-LGP3Cr-37" vertex="1">
          <mxGeometry x="80" y="80" width="200" height="120" as="geometry" />
        </mxCell>
        <mxCell id="KW-mi6ML7vya9-LGP3Cr-42" value="" style="sketch=0;points=[[0,0,0],[0.25,0,0],[0.5,0,0],[0.75,0,0],[1,0,0],[0,1,0],[0.25,1,0],[0.5,1,0],[0.75,1,0],[1,1,0],[0,0.25,0],[0,0.5,0],[0,0.75,0],[1,0.25,0],[1,0.5,0],[1,0.75,0]];outlineConnect=0;fontColor=#232F3E;fillColor=#ED7100;strokeColor=#ffffff;dashed=0;verticalLabelPosition=bottom;verticalAlign=top;align=center;html=1;fontSize=12;fontStyle=0;aspect=fixed;shape=mxgraph.aws4.resourceIcon;resIcon=mxgraph.aws4.ecr;" parent="KW-mi6ML7vya9-LGP3Cr-37" vertex="1">
          <mxGeometry x="40" y="40" width="24" height="24" as="geometry" />
        </mxCell>
        <mxCell id="KW-mi6ML7vya9-LGP3Cr-43" value="" style="sketch=0;outlineConnect=0;fontColor=#232F3E;gradientColor=none;fillColor=#ED7100;strokeColor=none;dashed=0;verticalLabelPosition=bottom;verticalAlign=top;align=center;html=1;fontSize=12;fontStyle=0;aspect=fixed;pointerEvents=1;shape=mxgraph.aws4.container_registry_image;" parent="KW-mi6ML7vya9-LGP3Cr-37" vertex="1">
          <mxGeometry x="135" y="125" width="30" height="30" as="geometry" />
        </mxCell>
        <mxCell id="KW-mi6ML7vya9-LGP3Cr-44" value="" style="sketch=0;outlineConnect=0;fontColor=#232F3E;gradientColor=none;fillColor=#ED7100;strokeColor=none;dashed=0;verticalLabelPosition=bottom;verticalAlign=top;align=center;html=1;fontSize=12;fontStyle=0;aspect=fixed;pointerEvents=1;shape=mxgraph.aws4.registry;" parent="KW-mi6ML7vya9-LGP3Cr-37" vertex="1">
          <mxGeometry x="80" y="80" width="24" height="24" as="geometry" />
        </mxCell>
        <mxCell id="KW-mi6ML7vya9-LGP3Cr-45" value="" style="sketch=0;outlineConnect=0;fontColor=#232F3E;gradientColor=none;fillColor=#ED7100;strokeColor=none;dashed=0;verticalLabelPosition=bottom;verticalAlign=top;align=center;html=1;fontSize=12;fontStyle=0;aspect=fixed;pointerEvents=1;shape=mxgraph.aws4.container_registry_image;" parent="KW-mi6ML7vya9-LGP3Cr-37" vertex="1">
          <mxGeometry x="195" y="125" width="30" height="30" as="geometry" />
        </mxCell>
        <mxCell id="KW-mi6ML7vya9-LGP3Cr-46" style="edgeStyle=orthogonalEdgeStyle;rounded=0;orthogonalLoop=1;jettySize=auto;html=1;exitX=0.5;exitY=1;exitDx=0;exitDy=0;" parent="KW-mi6ML7vya9-LGP3Cr-37" edge="1">
          <mxGeometry relative="1" as="geometry">
            <mxPoint x="395" y="399.17" as="sourcePoint" />
            <mxPoint x="395" y="399.17" as="targetPoint" />
          </mxGeometry>
        </mxCell>
        <mxCell id="KW-mi6ML7vya9-LGP3Cr-47" style="edgeStyle=orthogonalEdgeStyle;rounded=0;orthogonalLoop=1;jettySize=auto;html=1;exitX=0.5;exitY=1;exitDx=0;exitDy=0;" parent="KW-mi6ML7vya9-LGP3Cr-37" edge="1">
          <mxGeometry relative="1" as="geometry">
            <mxPoint x="395" y="399.17" as="sourcePoint" />
            <mxPoint x="395" y="399.17" as="targetPoint" />
          </mxGeometry>
        </mxCell>
        <mxCell id="KW-mi6ML7vya9-LGP3Cr-53" style="edgeStyle=orthogonalEdgeStyle;rounded=0;orthogonalLoop=1;jettySize=auto;html=1;exitX=1;exitY=0.5;exitDx=0;exitDy=0;" parent="KW-mi6ML7vya9-LGP3Cr-4" source="KW-mi6ML7vya9-LGP3Cr-19" target="KW-mi6ML7vya9-LGP3Cr-41" edge="1">
          <mxGeometry relative="1" as="geometry" />
        </mxCell>
        <mxCell id="KW-mi6ML7vya9-LGP3Cr-57" value="Replication" style="text;html=1;align=center;verticalAlign=middle;whiteSpace=wrap;rounded=0;" parent="KW-mi6ML7vya9-LGP3Cr-4" vertex="1">
          <mxGeometry x="450" y="150" width="60" height="30" as="geometry" />
        </mxCell>
      </root>
    </mxGraphModel>
  </diagram>
</mxfile>
